<?xml version="1.0" encoding="utf-8"?>
<!-- Generator: Adobe Illustrator 25.4.1, SVG Export Plug-In . SVG Version: 6.00 Build 0)  -->
<svg version="1.1" id="Layer_1" xmlns="http://www.w3.org/2000/svg" xmlns:xlink="http://www.w3.org/1999/xlink" x="0px" y="0px"
	 viewBox="0 0 112.3 112.3" style="enable-background:new 0 0 112.3 112.3;" xml:space="preserve">
<style type="text/css">
	.st0{fill:url(#SVGID_1_);}
	.st1{clip-path:url(#SVGID_00000010280651044936052290000012085688310188389528_);}
	.st2{filter:url(#Adobe_OpacityMaskFilter);}
	.st3{clip-path:url(#SVGID_00000176744829330685457120000004524282872526822791_);}
	.st4{clip-path:url(#SVGID_00000163758007934513683210000008458066158901637010_);}
	
		.st5{clip-path:url(#SVGID_00000138563832213655977240000012038900064363829924_);fill:url(#SVGID_00000125598490540393496390000014408940964084674977_);}
	
		.st6{clip-path:url(#SVGID_00000176744829330685457120000004524282872526822791_);mask:url(#SVGID_00000133530656336316853330000018201714026774697404_);fill:url(#SVGID_00000012455131352804951740000001736821488850211985_);}
	.st7{fill:url(#SVGID_00000059990447817336477660000009174156314416522913_);}
	.st8{fill:url(#SVGID_00000038403928337921594280000018008069457643536780_);}
	.st9{fill:url(#SVGID_00000056425635422410375150000009167357521720781708_);}
	.st10{clip-path:url(#SVGID_00000182511165517603212000000013892798230970573244_);}
	.st11{filter:url(#Adobe_OpacityMaskFilter_00000071519692597063012930000015973026562735462309_);}
	.st12{clip-path:url(#SVGID_00000039098028126091929930000008822079483775104181_);}
	.st13{clip-path:url(#SVGID_00000074433582844661642530000010815621376069365645_);}
	
		.st14{clip-path:url(#SVGID_00000181062488534857183110000000799109789220882868_);fill:url(#SVGID_00000128457740937416971330000008097379625173924737_);}
	
		.st15{clip-path:url(#SVGID_00000039098028126091929930000008822079483775104181_);mask:url(#SVGID_00000168081935606864643390000001947177580767202991_);fill:url(#SVGID_00000041992144632223143030000005333885137440284322_);}
</style>
<g>
	<g>
		
			<radialGradient id="SVGID_1_" cx="-421.8174" cy="558.71" r="1.1038" gradientTransform="matrix(45.4576 11.1888 -11.1888 45.4576 25487.2637 -20623.7031)" gradientUnits="userSpaceOnUse">
			<stop  offset="0" style="stop-color:#58595B"/>
			<stop  offset="0.3751" style="stop-color:#4A4A4C"/>
			<stop  offset="1" style="stop-color:#000000"/>
		</radialGradient>
		<path class="st0" d="M56.1,0C30.9,0,7.9,17.1,1.6,42.7c-7.4,30.1,11,60.5,41.1,67.9c4.5,1.1,9,1.6,13.5,1.6
			c25.2,0,48.2-17.1,54.5-42.7c7.4-30.1-11-60.5-41.1-67.9C65.1,0.5,60.6,0,56.1,0"/>
		<g>
			<g>
				<defs>
					<polygon id="SVGID_00000006671752274494440240000005521628354397911484_" points="1,1 2,1 1,2 					"/>
				</defs>
				<defs>
					<polygon id="SVGID_00000133496232033888844900000006343249418867960961_" points="-1,-1 -2,-1 -1,-2 					"/>
				</defs>
				<clipPath id="SVGID_00000078023582130193315380000011993150380077495211_">
					<use xlink:href="#SVGID_00000006671752274494440240000005521628354397911484_"  style="overflow:visible;"/>
				</clipPath>
				
					<clipPath id="SVGID_00000089560865323348273490000014468052549833438385_" style="clip-path:url(#SVGID_00000078023582130193315380000011993150380077495211_);">
					<use xlink:href="#SVGID_00000133496232033888844900000006343249418867960961_"  style="overflow:visible;"/>
				</clipPath>
				<defs>
					<filter id="Adobe_OpacityMaskFilter" filterUnits="userSpaceOnUse" x="6.6" y="5.7" width="62.8" height="60.3">
						<feColorMatrix  type="matrix" values="1 0 0 0 0  0 1 0 0 0  0 0 1 0 0  0 0 0 1 0"/>
					</filter>
				</defs>
				
					<mask maskUnits="userSpaceOnUse" x="6.6" y="5.7" width="62.8" height="60.3" id="SVGID_00000069368082500854750270000008329202701058637714_">
					<g class="st2">
						<g>
							<defs>
								<polygon id="SVGID_00000173858925851576791760000001508753815974249865_" points="1,1 2,1 1,2 								"/>
							</defs>
							<defs>
								<polygon id="SVGID_00000174572730591493377170000003632727152728535694_" points="-1,-1 -2,-1 -1,-2 								"/>
							</defs>
							
								<clipPath id="SVGID_00000070083078220584787330000004645206883517085872_" style="clip-path:url(#SVGID_00000089560865323348273490000014468052549833438385_);">
								<use xlink:href="#SVGID_00000173858925851576791760000001508753815974249865_"  style="overflow:visible;"/>
							</clipPath>
							
								<clipPath id="SVGID_00000120537952165201340630000001195260079564937649_" style="clip-path:url(#SVGID_00000070083078220584787330000004645206883517085872_);">
								<use xlink:href="#SVGID_00000174572730591493377170000003632727152728535694_"  style="overflow:visible;"/>
							</clipPath>
							
								<linearGradient id="SVGID_00000086664518092926744420000017549946670223526045_" gradientUnits="userSpaceOnUse" x1="-422.1042" y1="558.9482" x2="-422.6789" y2="557.9459" gradientTransform="matrix(45.4576 11.1888 -11.1888 45.4576 25487.2637 -20623.7031)">
								<stop  offset="0.3636" style="stop-color:#000000"/>
								<stop  offset="0.5203" style="stop-color:#020202"/>
								<stop  offset="0.6076" style="stop-color:#0A0A0A"/>
								<stop  offset="0.6777" style="stop-color:#181818"/>
								<stop  offset="0.7388" style="stop-color:#2C2C2C"/>
								<stop  offset="0.7941" style="stop-color:#454545"/>
								<stop  offset="0.845" style="stop-color:#656565"/>
								<stop  offset="0.8928" style="stop-color:#8A8A8A"/>
								<stop  offset="0.9379" style="stop-color:#B5B5B5"/>
								<stop  offset="0.9795" style="stop-color:#E5E5E5"/>
								<stop  offset="1" style="stop-color:#FFFFFF"/>
							</linearGradient>
							
								<path style="clip-path:url(#SVGID_00000120537952165201340630000001195260079564937649_);fill:url(#SVGID_00000086664518092926744420000017549946670223526045_);" d="
								M49.5,5.7c-8.8,0-19.1,4.1-27.8,11.9C6.9,30.9,2.2,49.8,11.2,59.9C14.9,64,20.4,66,26.5,66c8.8,0,19.1-4.1,27.8-11.9
								C69.2,40.9,73.8,22,64.8,11.9C61.1,7.7,55.6,5.7,49.5,5.7"/>
						</g>
					</g>
				</mask>
				
					<linearGradient id="SVGID_00000083057915416134703750000006785543954139023244_" gradientUnits="userSpaceOnUse" x1="-422.1042" y1="558.9482" x2="-422.6789" y2="557.9459" gradientTransform="matrix(45.4576 11.1888 -11.1888 45.4576 25487.2637 -20623.7031)">
					<stop  offset="0.3636" style="stop-color:#000000"/>
					<stop  offset="0.5203" style="stop-color:#020202"/>
					<stop  offset="0.6076" style="stop-color:#0A0A0A"/>
					<stop  offset="0.6777" style="stop-color:#181818"/>
					<stop  offset="0.7388" style="stop-color:#2C2C2C"/>
					<stop  offset="0.7941" style="stop-color:#454545"/>
					<stop  offset="0.845" style="stop-color:#656565"/>
					<stop  offset="0.8928" style="stop-color:#8A8A8A"/>
					<stop  offset="0.9379" style="stop-color:#B5B5B5"/>
					<stop  offset="0.9795" style="stop-color:#E5E5E5"/>
					<stop  offset="1" style="stop-color:#FFFFFF"/>
				</linearGradient>
				
					<path style="clip-path:url(#SVGID_00000089560865323348273490000014468052549833438385_);mask:url(#SVGID_00000069368082500854750270000008329202701058637714_);fill:url(#SVGID_00000083057915416134703750000006785543954139023244_);" d="
					M49.5,5.7c-8.8,0-19.1,4.1-27.8,11.9C6.9,30.9,2.2,49.8,11.2,59.9C14.9,64,20.4,66,26.5,66c8.8,0,19.1-4.1,27.8-11.9
					C69.2,40.9,73.8,22,64.8,11.9C61.1,7.7,55.6,5.7,49.5,5.7"/>
			</g>
		</g>
		<path d="M79.9,36.6c-1.3,5.1-6.4,8.2-11.5,7c-5.1-1.3-8.2-6.4-7-11.5c1.3-5.1,6.4-8.2,11.5-7C78,26.4,81.1,31.5,79.9,36.6z"/>
		<path d="M71.3,58.4c-1.3,5.1-6.4,8.2-11.5,7c-5.1-1.3-8.2-6.4-7-11.5c1.3-5.1,6.4-8.2,11.5-7C69.5,48.2,72.6,53.3,71.3,58.4z"/>
		<path d="M97.1,53.7c-1.3,5.1-6.4,8.2-11.5,7c-5.1-1.3-8.2-6.4-7-11.5c1.3-5.1,6.4-8.2,11.5-7S98.3,48.6,97.1,53.7z"/>
		
			<linearGradient id="SVGID_00000049912996299430020700000017732560260171676816_" gradientUnits="userSpaceOnUse" x1="-152.3774" y1="78.7315" x2="-134.3811" y2="78.7315" gradientTransform="matrix(1 0 0 -1 214.5039 111.8898)">
			<stop  offset="0.1455" style="stop-color:#414042"/>
			<stop  offset="0.5326" style="stop-color:#434345"/>
			<stop  offset="0.7922" style="stop-color:#4C4C4E"/>
			<stop  offset="1" style="stop-color:#58595B"/>
		</linearGradient>
		<path style="fill:url(#SVGID_00000049912996299430020700000017732560260171676816_);" d="M72.9,25.1c-4.4-1.1-8.8,1.1-10.8,4.9
			c2.3-2,5.4-2.8,8.5-2.1c5.1,1.3,8.2,6.4,7,11.5c-0.2,0.7-0.5,1.4-0.8,2.1c1.4-1.2,2.5-2.9,3-4.9C81.1,31.5,78,26.4,72.9,25.1z"/>
		
			<linearGradient id="SVGID_00000150084403869735861400000014959646952597812882_" gradientUnits="userSpaceOnUse" x1="-160.9203" y1="56.9315" x2="-142.9082" y2="56.9315" gradientTransform="matrix(1 0 0 -1 214.5039 111.8898)">
			<stop  offset="0.1455" style="stop-color:#414042"/>
			<stop  offset="0.5326" style="stop-color:#434345"/>
			<stop  offset="0.7922" style="stop-color:#4C4C4E"/>
			<stop  offset="1" style="stop-color:#58595B"/>
		</linearGradient>
		<path style="fill:url(#SVGID_00000150084403869735861400000014959646952597812882_);" d="M64.3,46.9c-4.4-1.1-8.8,1.1-10.8,4.9
			c2.3-2,5.4-2.8,8.5-2.1c5.1,1.3,8.2,6.4,7,11.5c-0.2,0.7-0.4,1.4-0.8,2.1c1.4-1.2,2.5-2.9,3-4.9C72.6,53.3,69.5,48.2,64.3,46.9z"
			/>
		
			<linearGradient id="SVGID_00000156587473809578535580000006656837992923351222_" gradientUnits="userSpaceOnUse" x1="-135.1723" y1="61.6315" x2="-117.176" y2="61.6315" gradientTransform="matrix(1 0 0 -1 214.5039 111.8898)">
			<stop  offset="0.1455" style="stop-color:#414042"/>
			<stop  offset="0.5326" style="stop-color:#434345"/>
			<stop  offset="0.7922" style="stop-color:#4C4C4E"/>
			<stop  offset="1" style="stop-color:#58595B"/>
		</linearGradient>
		<path style="fill:url(#SVGID_00000156587473809578535580000006656837992923351222_);" d="M90.1,42.2c-4.4-1.1-8.8,1.1-10.8,4.9
			c2.3-2,5.4-2.8,8.5-2.1c5.1,1.3,8.2,6.4,7,11.5c-0.2,0.7-0.5,1.4-0.8,2.1c1.4-1.2,2.5-2.9,3-4.9C98.3,48.6,95.2,43.4,90.1,42.2z"
			/>
	</g>
	<g>
		<g>
			<defs>
				<polygon id="SVGID_00000090296425098244877180000009586572284327169714_" points="1,1 2,1 1,2 				"/>
			</defs>
			<defs>
				<polygon id="SVGID_00000010278334405928724230000005454736845532820133_" points="-1,-1 -2,-1 -1,-2 				"/>
			</defs>
			<clipPath id="SVGID_00000064346843941965343490000007614270731602251185_">
				<use xlink:href="#SVGID_00000090296425098244877180000009586572284327169714_"  style="overflow:visible;"/>
			</clipPath>
			
				<clipPath id="SVGID_00000029027054239491671440000016351505024008982706_" style="clip-path:url(#SVGID_00000064346843941965343490000007614270731602251185_);">
				<use xlink:href="#SVGID_00000010278334405928724230000005454736845532820133_"  style="overflow:visible;"/>
			</clipPath>
			<defs>
				
					<filter id="Adobe_OpacityMaskFilter_00000070807583918798383660000003325791247061312703_" filterUnits="userSpaceOnUse" x="4.3" y="4.3" width="103.8" height="103.8">
					<feColorMatrix  type="matrix" values="1 0 0 0 0  0 1 0 0 0  0 0 1 0 0  0 0 0 1 0"/>
				</filter>
			</defs>
			
				<mask maskUnits="userSpaceOnUse" x="4.3" y="4.3" width="103.8" height="103.8" id="SVGID_00000105385244401885004520000011633395410729933954_">
				<g style="filter:url(#Adobe_OpacityMaskFilter_00000070807583918798383660000003325791247061312703_);">
					<g>
						<defs>
							<polygon id="SVGID_00000066476157899544395800000007750339284135158180_" points="1,1 2,1 1,2 							"/>
						</defs>
						<defs>
							<polygon id="SVGID_00000140003338703020000450000000176943506537721483_" points="-1,-1 -2,-1 -1,-2 							"/>
						</defs>
						
							<clipPath id="SVGID_00000101825073417219543760000011822011370931847575_" style="clip-path:url(#SVGID_00000029027054239491671440000016351505024008982706_);">
							<use xlink:href="#SVGID_00000066476157899544395800000007750339284135158180_"  style="overflow:visible;"/>
						</clipPath>
						
							<clipPath id="SVGID_00000092436158908722144070000017450625808143652521_" style="clip-path:url(#SVGID_00000101825073417219543760000011822011370931847575_);">
							<use xlink:href="#SVGID_00000140003338703020000450000000176943506537721483_"  style="overflow:visible;"/>
						</clipPath>
						
							<linearGradient id="SVGID_00000034773124870435507340000011529775476720306616_" gradientUnits="userSpaceOnUse" x1="-158.3039" y1="3.7898" x2="-158.3039" y2="107.5898" gradientTransform="matrix(1 0 0 -1 214.5039 111.8898)">
							<stop  offset="0.5939" style="stop-color:#000000"/>
							<stop  offset="0.6939" style="stop-color:#020202"/>
							<stop  offset="0.7496" style="stop-color:#0A0A0A"/>
							<stop  offset="0.7944" style="stop-color:#181818"/>
							<stop  offset="0.8334" style="stop-color:#2C2C2C"/>
							<stop  offset="0.8686" style="stop-color:#454545"/>
							<stop  offset="0.9011" style="stop-color:#656565"/>
							<stop  offset="0.9316" style="stop-color:#8A8A8A"/>
							<stop  offset="0.9604" style="stop-color:#B5B5B5"/>
							<stop  offset="0.9869" style="stop-color:#E5E5E5"/>
							<stop  offset="1" style="stop-color:#FFFFFF"/>
						</linearGradient>
						
							<circle style="clip-path:url(#SVGID_00000092436158908722144070000017450625808143652521_);fill:url(#SVGID_00000034773124870435507340000011529775476720306616_);" cx="56.2" cy="56.2" r="51.9"/>
					</g>
				</g>
			</mask>
			
				<linearGradient id="SVGID_00000137089587100556444470000006908303459015314848_" gradientUnits="userSpaceOnUse" x1="-158.3039" y1="3.7898" x2="-158.3039" y2="107.5898" gradientTransform="matrix(1 0 0 -1 214.5039 111.8898)">
				<stop  offset="0.5939" style="stop-color:#000000"/>
				<stop  offset="0.6939" style="stop-color:#020202"/>
				<stop  offset="0.7496" style="stop-color:#0A0A0A"/>
				<stop  offset="0.7944" style="stop-color:#181818"/>
				<stop  offset="0.8334" style="stop-color:#2C2C2C"/>
				<stop  offset="0.8686" style="stop-color:#454545"/>
				<stop  offset="0.9011" style="stop-color:#656565"/>
				<stop  offset="0.9316" style="stop-color:#8A8A8A"/>
				<stop  offset="0.9604" style="stop-color:#B5B5B5"/>
				<stop  offset="0.9869" style="stop-color:#E5E5E5"/>
				<stop  offset="1" style="stop-color:#FFFFFF"/>
			</linearGradient>
			
				<circle style="clip-path:url(#SVGID_00000029027054239491671440000016351505024008982706_);mask:url(#SVGID_00000105385244401885004520000011633395410729933954_);fill:url(#SVGID_00000137089587100556444470000006908303459015314848_);" cx="56.2" cy="56.2" r="51.9"/>
		</g>
	</g>
</g>
</svg>
