<?xml version="1.0" encoding="utf-8"?>
<!-- Generator: Adobe Illustrator 25.4.1, SVG Export Plug-In . SVG Version: 6.00 Build 0)  -->
<svg version="1.1" id="Capa_1" xmlns="http://www.w3.org/2000/svg" xmlns:xlink="http://www.w3.org/1999/xlink" x="0px" y="0px"
	 viewBox="0 0 53 162.3" style="enable-background:new 0 0 53 162.3;" xml:space="preserve">
<style type="text/css">
	.st0{fill:url(#SVGID_1_);}
	.st1{fill:url(#SVGID_00000097469869529717356980000005546865830177628305_);}
	.st2{clip-path:url(#SVGID_00000090984756056366915590000000321008567473829014_);}
	.st3{filter:url(#Adobe_OpacityMaskFilter);}
	.st4{clip-path:url(#SVGID_00000119838864698178010240000002415667961990374301_);}
	.st5{clip-path:url(#SVGID_00000154401030732834203550000013103900611733120431_);}
	
		.st6{clip-path:url(#SVGID_00000044145577450688121690000013018740926996066973_);fill:url(#SVGID_00000047754366184615405370000016086344637505346450_);}
	
		.st7{clip-path:url(#SVGID_00000119838864698178010240000002415667961990374301_);mask:url(#SVGID_00000116205457000886420130000010765076743396085639_);fill:url(#SVGID_00000089540424350997004820000000723952414233064863_);}
	.st8{fill:url(#SVGID_00000143583732106522812940000015172930600420977335_);}
	.st9{clip-path:url(#SVGID_00000173138393139979333680000005656925706384754310_);}
	.st10{filter:url(#Adobe_OpacityMaskFilter_00000078767131989572375320000001339975941387382677_);}
	.st11{clip-path:url(#SVGID_00000062169121019593263250000010653315429956098692_);}
	.st12{clip-path:url(#SVGID_00000032640063479174617060000006331237893155065279_);}
	
		.st13{clip-path:url(#SVGID_00000173850138536395557830000002162648817104838570_);fill:url(#SVGID_00000069372242616021676870000003210978609894261925_);}
	
		.st14{clip-path:url(#SVGID_00000062169121019593263250000010653315429956098692_);mask:url(#SVGID_00000073700119816156645070000017909240721910208443_);fill:url(#SVGID_00000040565897130978590390000010154138661423651977_);}
	.st15{fill:url(#SVGID_00000000920312124367614060000015663216911190792845_);}
	.st16{fill:url(#SVGID_00000057150326447805802580000002245797760561273220_);}
</style>
<g>
	
		<linearGradient id="SVGID_1_" gradientUnits="userSpaceOnUse" x1="-214.5039" y1="80.7042" x2="-161.5039" y2="80.7042" gradientTransform="matrix(1 0 0 -1 214.5039 161.8898)">
		<stop  offset="0" style="stop-color:#939598"/>
		<stop  offset="1.873813e-02" style="stop-color:#A1A3A6"/>
		<stop  offset="6.461553e-02" style="stop-color:#BEBFC1"/>
		<stop  offset="0.1159" style="stop-color:#D6D7D8"/>
		<stop  offset="0.174" style="stop-color:#E8E9E9"/>
		<stop  offset="0.2427" style="stop-color:#F5F6F6"/>
		<stop  offset="0.3323" style="stop-color:#FDFDFD"/>
		<stop  offset="0.5212" style="stop-color:#FFFFFF"/>
		<stop  offset="0.648" style="stop-color:#FCFCFC"/>
		<stop  offset="0.7302" style="stop-color:#F4F4F4"/>
		<stop  offset="0.7996" style="stop-color:#E5E5E6"/>
		<stop  offset="0.8621" style="stop-color:#D0D0D2"/>
		<stop  offset="0.9197" style="stop-color:#B5B6B7"/>
		<stop  offset="0.9732" style="stop-color:#949598"/>
		<stop  offset="1" style="stop-color:#808285"/>
	</linearGradient>
	<path class="st0" d="M50,92.3c-2.6-8.4-11.2-25.8-12.8-36.1c-1.7-11,0.1-18.2,1.8-23.8c1.4-4.5,2-12.2,1.8-16.3
		c-0.1-5.2-2-15.9-14.1-16.1l0,0h-0.4l0,0C14.2,0.2,12.4,10.9,12.1,16.1c-0.2,4.1,0.4,11.8,1.8,16.3c1.7,5.6,3.6,12.9,1.8,23.8
		C14.2,66.6,5.6,83.9,3,92.3c-1.9,5.2-3,10.7-3,17.3c0,32.8,12.7,51.6,12.7,51.6c5.4,1.4,12.3,1.2,13.8,1.1
		c1.5,0.1,8.4,0.3,13.8-1.1c0,0,12.7-18.8,12.7-51.6C53,103,51.9,97.5,50,92.3z"/>
	
		<linearGradient id="SVGID_00000029033630099191931150000000949793660797279366_" gradientUnits="userSpaceOnUse" x1="-203.3105" y1="97.0398" x2="-172.6738" y2="97.0398" gradientTransform="matrix(1 0 0 -1 214.5039 161.8898)">
		<stop  offset="0" style="stop-color:#BE1E2D"/>
		<stop  offset="9.967010e-02" style="stop-color:#C61E2C"/>
		<stop  offset="0.2495" style="stop-color:#DD1D27"/>
		<stop  offset="0.3091" style="stop-color:#ED1C24"/>
		<stop  offset="0.4166" style="stop-color:#EE2927"/>
		<stop  offset="0.5781" style="stop-color:#EF4431"/>
		<stop  offset="0.6424" style="stop-color:#F04E37"/>
		<stop  offset="1" style="stop-color:#860B17"/>
	</linearGradient>
	<path style="fill:url(#SVGID_00000029033630099191931150000000949793660797279366_);" d="M41.8,71.3c-1.6-4.1-3-8.1-3.9-11.7
		C30.3,58,22.6,58,15,59.6c-0.9,3.5-2.3,7.6-3.9,11.7C21.3,68.2,31.8,68.2,41.8,71.3z"/>
	<g>
		<g>
			<defs>
				<polygon id="SVGID_00000098919917441997598520000005117432666879526557_" points="1,1 2,1 1,2 				"/>
			</defs>
			<defs>
				<polygon id="SVGID_00000163774600121300241100000000256361918758586042_" points="-1,-1 -2,-1 -1,-2 				"/>
			</defs>
			<clipPath id="SVGID_00000085230910289432307360000008851912530241097111_">
				<use xlink:href="#SVGID_00000098919917441997598520000005117432666879526557_"  style="overflow:visible;"/>
			</clipPath>
			
				<clipPath id="SVGID_00000141437055982386129730000018039109758946974118_" style="clip-path:url(#SVGID_00000085230910289432307360000008851912530241097111_);">
				<use xlink:href="#SVGID_00000163774600121300241100000000256361918758586042_"  style="overflow:visible;"/>
			</clipPath>
			<defs>
				<filter id="Adobe_OpacityMaskFilter" filterUnits="userSpaceOnUse" x="12.1" y="59.4" width="28.8" height="11">
					<feColorMatrix  type="matrix" values="1 0 0 0 0  0 1 0 0 0  0 0 1 0 0  0 0 0 1 0"/>
				</filter>
			</defs>
			
				<mask maskUnits="userSpaceOnUse" x="12.1" y="59.4" width="28.8" height="11" id="SVGID_00000013880561879373930590000007716927777764862899_">
				<g class="st3">
					<g>
						<defs>
							<polygon id="SVGID_00000027582824441829249130000016661164487219548345_" points="1,1 2,1 1,2 							"/>
						</defs>
						<defs>
							<polygon id="SVGID_00000031192667929364107220000015585522331252041140_" points="-1,-1 -2,-1 -1,-2 							"/>
						</defs>
						
							<clipPath id="SVGID_00000129901025643311284190000004697721187816030345_" style="clip-path:url(#SVGID_00000141437055982386129730000018039109758946974118_);">
							<use xlink:href="#SVGID_00000027582824441829249130000016661164487219548345_"  style="overflow:visible;"/>
						</clipPath>
						
							<clipPath id="SVGID_00000120553718135534650520000000606313331174611130_" style="clip-path:url(#SVGID_00000129901025643311284190000004697721187816030345_);">
							<use xlink:href="#SVGID_00000031192667929364107220000015585522331252041140_"  style="overflow:visible;"/>
						</clipPath>
						
							<linearGradient id="SVGID_00000068671008678057411950000011941020428334588558_" gradientUnits="userSpaceOnUse" x1="-188.0039" y1="91.5128" x2="-188.0039" y2="102.474" gradientTransform="matrix(1 0 0 -1 214.5039 161.8898)">
							<stop  offset="0.3879" style="stop-color:#000000"/>
							<stop  offset="0.616" style="stop-color:#020202"/>
							<stop  offset="0.6982" style="stop-color:#090909"/>
							<stop  offset="0.7567" style="stop-color:#141414"/>
							<stop  offset="0.8041" style="stop-color:#252525"/>
							<stop  offset="0.8447" style="stop-color:#3B3B3B"/>
							<stop  offset="0.8806" style="stop-color:#575757"/>
							<stop  offset="0.9131" style="stop-color:#777777"/>
							<stop  offset="0.943" style="stop-color:#9D9D9D"/>
							<stop  offset="0.9708" style="stop-color:#C8C8C8"/>
							<stop  offset="0.9955" style="stop-color:#F6F6F6"/>
							<stop  offset="1" style="stop-color:#FFFFFF"/>
						</linearGradient>
						
							<path style="clip-path:url(#SVGID_00000120553718135534650520000000606313331174611130_);fill:url(#SVGID_00000068671008678057411950000011941020428334588558_);" d="
							M40.9,70.4c-1.3-3.5-2.6-6.9-3.3-10c-6.5-1.3-15.7-1.3-22.2,0c-0.8,3-2,6.5-3.3,10C20.7,67.7,32.3,67.7,40.9,70.4z"/>
					</g>
				</g>
			</mask>
			
				<linearGradient id="SVGID_00000103985196754687027520000018114560265658869382_" gradientUnits="userSpaceOnUse" x1="-188.0039" y1="91.5128" x2="-188.0039" y2="102.474" gradientTransform="matrix(1 0 0 -1 214.5039 161.8898)">
				<stop  offset="0.3879" style="stop-color:#000000"/>
				<stop  offset="0.616" style="stop-color:#020202"/>
				<stop  offset="0.6982" style="stop-color:#090909"/>
				<stop  offset="0.7567" style="stop-color:#141414"/>
				<stop  offset="0.8041" style="stop-color:#252525"/>
				<stop  offset="0.8447" style="stop-color:#3B3B3B"/>
				<stop  offset="0.8806" style="stop-color:#575757"/>
				<stop  offset="0.9131" style="stop-color:#777777"/>
				<stop  offset="0.943" style="stop-color:#9D9D9D"/>
				<stop  offset="0.9708" style="stop-color:#C8C8C8"/>
				<stop  offset="0.9955" style="stop-color:#F6F6F6"/>
				<stop  offset="1" style="stop-color:#FFFFFF"/>
			</linearGradient>
			
				<path style="clip-path:url(#SVGID_00000141437055982386129730000018039109758946974118_);mask:url(#SVGID_00000013880561879373930590000007716927777764862899_);fill:url(#SVGID_00000103985196754687027520000018114560265658869382_);" d="
				M40.9,70.4c-1.3-3.5-2.6-6.9-3.3-10c-6.5-1.3-15.7-1.3-22.2,0c-0.8,3-2,6.5-3.3,10C20.7,67.7,32.3,67.7,40.9,70.4z"/>
		</g>
	</g>
	
		<linearGradient id="SVGID_00000153672698651469319290000011362740478779483821_" gradientUnits="userSpaceOnUse" x1="-199.2039" y1="119.8898" x2="-176.7664" y2="119.8898" gradientTransform="matrix(1 0 0 -1 214.5039 161.8898)">
		<stop  offset="0" style="stop-color:#BE1E2D"/>
		<stop  offset="9.967010e-02" style="stop-color:#C61E2C"/>
		<stop  offset="0.2495" style="stop-color:#DD1D27"/>
		<stop  offset="0.3091" style="stop-color:#ED1C24"/>
		<stop  offset="0.4166" style="stop-color:#EE2927"/>
		<stop  offset="0.5781" style="stop-color:#EF4431"/>
		<stop  offset="0.6424" style="stop-color:#F04E37"/>
		<stop  offset="1" style="stop-color:#860B17"/>
	</linearGradient>
	<path style="fill:url(#SVGID_00000153672698651469319290000011362740478779483821_);" d="M36.5,47.6c0-4,0.5-7.4,1.2-10.3
		c-7.5-1.2-15-1.2-22.4,0c0.7,3,1.2,6.3,1.2,10.3C23.1,46.5,29.9,46.5,36.5,47.6z"/>
	<g>
		<g>
			<defs>
				<polygon id="SVGID_00000086658924525407390990000012025885154954459289_" points="1,1 2,1 1,2 				"/>
			</defs>
			<defs>
				<polygon id="SVGID_00000005955612179993264360000011826804170023976368_" points="-1,-1 -2,-1 -1,-2 				"/>
			</defs>
			<clipPath id="SVGID_00000075866465221418139420000017224764809579715999_">
				<use xlink:href="#SVGID_00000086658924525407390990000012025885154954459289_"  style="overflow:visible;"/>
			</clipPath>
			
				<clipPath id="SVGID_00000132080621576704076510000014071329360659790720_" style="clip-path:url(#SVGID_00000075866465221418139420000017224764809579715999_);">
				<use xlink:href="#SVGID_00000005955612179993264360000011826804170023976368_"  style="overflow:visible;"/>
			</clipPath>
			<defs>
				
					<filter id="Adobe_OpacityMaskFilter_00000011010966152069864120000011431415855263292343_" filterUnits="userSpaceOnUse" x="16.3" y="37.6" width="20.4" height="8.6">
					<feColorMatrix  type="matrix" values="1 0 0 0 0  0 1 0 0 0  0 0 1 0 0  0 0 0 1 0"/>
				</filter>
			</defs>
			
				<mask maskUnits="userSpaceOnUse" x="16.3" y="37.6" width="20.4" height="8.6" id="SVGID_00000106142080923998272120000011004603498342090403_">
				<g style="filter:url(#Adobe_OpacityMaskFilter_00000011010966152069864120000011431415855263292343_);">
					<g>
						<defs>
							<polygon id="SVGID_00000074420971027018665950000010900722890346451647_" points="1,1 2,1 1,2 							"/>
						</defs>
						<defs>
							<polygon id="SVGID_00000052099843080411844070000017505489608695671689_" points="-1,-1 -2,-1 -1,-2 							"/>
						</defs>
						
							<clipPath id="SVGID_00000155845768356819984300000009120564789833000884_" style="clip-path:url(#SVGID_00000132080621576704076510000014071329360659790720_);">
							<use xlink:href="#SVGID_00000074420971027018665950000010900722890346451647_"  style="overflow:visible;"/>
						</clipPath>
						
							<clipPath id="SVGID_00000070824254420879086790000012206205435765702301_" style="clip-path:url(#SVGID_00000155845768356819984300000009120564789833000884_);">
							<use xlink:href="#SVGID_00000052099843080411844070000017505489608695671689_"  style="overflow:visible;"/>
						</clipPath>
						
							<linearGradient id="SVGID_00000099635686247948841840000011415475854296886172_" gradientUnits="userSpaceOnUse" x1="-188.0039" y1="115.6749" x2="-188.0039" y2="124.278" gradientTransform="matrix(1 0 0 -1 214.5039 161.8898)">
							<stop  offset="0.3879" style="stop-color:#000000"/>
							<stop  offset="0.616" style="stop-color:#020202"/>
							<stop  offset="0.6982" style="stop-color:#090909"/>
							<stop  offset="0.7567" style="stop-color:#141414"/>
							<stop  offset="0.8041" style="stop-color:#252525"/>
							<stop  offset="0.8447" style="stop-color:#3B3B3B"/>
							<stop  offset="0.8806" style="stop-color:#575757"/>
							<stop  offset="0.9131" style="stop-color:#777777"/>
							<stop  offset="0.943" style="stop-color:#9D9D9D"/>
							<stop  offset="0.9708" style="stop-color:#C8C8C8"/>
							<stop  offset="0.9955" style="stop-color:#F6F6F6"/>
							<stop  offset="1" style="stop-color:#FFFFFF"/>
						</linearGradient>
						
							<path style="clip-path:url(#SVGID_00000070824254420879086790000012206205435765702301_);fill:url(#SVGID_00000099635686247948841840000011415475854296886172_);" d="
							M35.8,46.2c0-3,0.4-5.6,0.9-7.8c-5.6-0.9-14.1-1.1-20.4,0c0.5,2.2,0.9,4.8,0.9,7.8C22.2,45.4,30.8,45.4,35.8,46.2z"/>
					</g>
				</g>
			</mask>
			
				<linearGradient id="SVGID_00000098905171606134904210000008314537246355712394_" gradientUnits="userSpaceOnUse" x1="-188.0039" y1="115.6749" x2="-188.0039" y2="124.278" gradientTransform="matrix(1 0 0 -1 214.5039 161.8898)">
				<stop  offset="0.3879" style="stop-color:#000000"/>
				<stop  offset="0.616" style="stop-color:#020202"/>
				<stop  offset="0.6982" style="stop-color:#090909"/>
				<stop  offset="0.7567" style="stop-color:#141414"/>
				<stop  offset="0.8041" style="stop-color:#252525"/>
				<stop  offset="0.8447" style="stop-color:#3B3B3B"/>
				<stop  offset="0.8806" style="stop-color:#575757"/>
				<stop  offset="0.9131" style="stop-color:#777777"/>
				<stop  offset="0.943" style="stop-color:#9D9D9D"/>
				<stop  offset="0.9708" style="stop-color:#C8C8C8"/>
				<stop  offset="0.9955" style="stop-color:#F6F6F6"/>
				<stop  offset="1" style="stop-color:#FFFFFF"/>
			</linearGradient>
			
				<path style="clip-path:url(#SVGID_00000132080621576704076510000014071329360659790720_);mask:url(#SVGID_00000106142080923998272120000011004603498342090403_);fill:url(#SVGID_00000098905171606134904210000008314537246355712394_);" d="
				M35.8,46.2c0-3,0.4-5.6,0.9-7.8c-5.6-0.9-14.1-1.1-20.4,0c0.5,2.2,0.9,4.8,0.9,7.8C22.2,45.4,30.8,45.4,35.8,46.2z"/>
		</g>
	</g>
	
		<linearGradient id="SVGID_00000133494818992758986640000014591524078930587012_" gradientUnits="userSpaceOnUse" x1="-202.4414" y1="143.2898" x2="-173.5954" y2="143.2898" gradientTransform="matrix(1 0 0 -1 214.5039 161.8898)">
		<stop  offset="0" style="stop-color:#939598"/>
		<stop  offset="1.873813e-02" style="stop-color:#A1A3A6"/>
		<stop  offset="6.461553e-02" style="stop-color:#BEBFC1"/>
		<stop  offset="0.1159" style="stop-color:#D6D7D8"/>
		<stop  offset="0.174" style="stop-color:#E8E9E9"/>
		<stop  offset="0.2427" style="stop-color:#F5F6F6"/>
		<stop  offset="0.3323" style="stop-color:#FDFDFD"/>
		<stop  offset="0.5212" style="stop-color:#FFFFFF"/>
		<stop  offset="0.648" style="stop-color:#FCFCFC"/>
		<stop  offset="0.7302" style="stop-color:#F4F4F4"/>
		<stop  offset="0.7996" style="stop-color:#E5E5E6"/>
		<stop  offset="0.8621" style="stop-color:#D0D0D2"/>
		<stop  offset="0.9197" style="stop-color:#B5B6B7"/>
		<stop  offset="0.9732" style="stop-color:#949598"/>
		<stop  offset="1" style="stop-color:#808285"/>
	</linearGradient>
	<path style="fill:url(#SVGID_00000133494818992758986640000014591524078930587012_);" d="M15.3,37.2c7.4-1.2,15-1.2,22.4,0
		c0.4-1.7,0.9-3.3,1.3-4.8c1.4-4.5,2-12.2,1.8-16.3c-0.1-5.2-2-15.9-14.1-16.1l0,0h-0.4l0,0C14.2,0.2,12.4,10.9,12.1,16.1
		c-0.2,4.1,0.4,11.8,1.8,16.3C14.4,33.9,14.9,35.5,15.3,37.2z"/>
	
		<linearGradient id="SVGID_00000030485274692772920030000017214524782358071991_" gradientUnits="userSpaceOnUse" x1="-199.4316" y1="108.6523" x2="-176.5316" y2="108.6523" gradientTransform="matrix(1 0 0 -1 214.5039 161.8898)">
		<stop  offset="0" style="stop-color:#939598"/>
		<stop  offset="1.873813e-02" style="stop-color:#A1A3A6"/>
		<stop  offset="6.461553e-02" style="stop-color:#BEBFC1"/>
		<stop  offset="0.1159" style="stop-color:#D6D7D8"/>
		<stop  offset="0.174" style="stop-color:#E8E9E9"/>
		<stop  offset="0.2427" style="stop-color:#F5F6F6"/>
		<stop  offset="0.3323" style="stop-color:#FDFDFD"/>
		<stop  offset="0.5212" style="stop-color:#FFFFFF"/>
		<stop  offset="0.648" style="stop-color:#FCFCFC"/>
		<stop  offset="0.7302" style="stop-color:#F4F4F4"/>
		<stop  offset="0.7996" style="stop-color:#E5E5E6"/>
		<stop  offset="0.8621" style="stop-color:#D0D0D2"/>
		<stop  offset="0.9197" style="stop-color:#B5B6B7"/>
		<stop  offset="0.9732" style="stop-color:#949598"/>
		<stop  offset="1" style="stop-color:#808285"/>
	</linearGradient>
	<path style="fill:url(#SVGID_00000030485274692772920030000017214524782358071991_);" d="M36.5,47.6L36.5,47.6
		c-6.7-1.1-13.4-1.1-20,0l0,0c0,2.6-0.2,5.5-0.7,8.7c-0.2,1.1-0.4,2.2-0.7,3.4l0,0c7.6-1.6,15.3-1.6,22.9,0l0,0
		c-0.3-1.2-0.6-2.3-0.7-3.4C36.7,53.1,36.5,50.2,36.5,47.6z"/>
</g>
</svg>
